# xmcd
#
# Track frame offsets: 
#        150
#        15188
#        31733
#        57561
#        79539
#        95748
#        111953
#        140273
#        155560
#        172516
#        193519
#        214283
#        228664
#        262371
#        282095
#        308643
#        332052
#
# Disc length: 4643 seconds
#
# Revision: 0
# Processed by: cddbd v1.5.2PL0 Copyright (c) Steve Scherf et al.
# Submitted via: ExactAudioCopy v1.2
#
DISCID=e5122111
DTITLE=U.P. Wilson - Whirlwind [20th Anniversary Edition]
DYEAR=2016
DGENRE=Blues
TTITLE0=Roll Over
TTITLE1=Walk That Walk
TTITLE2=Your Last Chance
TTITLE3=Juicin
TTITLE4=Going Round In A Daze
TTITLE5=Who Will Your Next Fool Be?
TTITLE6=Deep Down Inside
TTITLE7=Bluesola
TTITLE8=Come On Baby, Go Home With Me
TTITLE9=If You Don't Know How To Act (Your Place Is At Home)
TTITLE10=Made Up My Mind
TTITLE11=Texas Squalling
TTITLE12=You Say You Love Me
TTITLE13=Let Her Go
TTITLE14=I Believe
TTITLE15=Crazy Things
TTITLE16=Rock Me
EXTD=
EXTT0=
EXTT1=
EXTT2=
EXTT3=
EXTT4=
EXTT5=
EXTT6=
EXTT7=
EXTT8=
EXTT9=
EXTT10=
EXTT11=
EXTT12=
EXTT13=
EXTT14=
EXTT15=
EXTT16=
PLAYORDER=
